<svg version="1.1" id="Layer_1" xmlns="http://www.w3.org/2000/svg" xmlns:xlink="http://www.w3.org/1999/xlink" x="0px" y="0px"
	 width="100%" viewBox="0 0 1024 1024" enable-background="new 0 0 1024 1024" xml:space="preserve">
<path fill="#000000" opacity="1.000000" stroke="none" 
	d="
M219.526566,366.650574 
	C239.057785,310.342987 273.079651,265.315155 321.448090,231.347351 
	C355.226044,207.626053 392.741241,192.915237 433.612000,186.464951 
	C454.496826,183.168869 475.478851,182.692963 496.362732,183.987946 
	C527.818176,185.938477 558.252808,193.353699 586.845093,206.888336 
	C664.071899,243.444901 715.470215,302.580841 737.094666,385.356537 
	C757.342041,462.861145 744.811401,536.199036 700.709167,603.228271 
	C669.137939,651.212036 625.907776,685.684753 572.142090,706.144531 
	C541.774597,717.700623 510.239136,723.464050 477.449799,723.591614 
	C412.352264,723.844849 354.478363,703.837280 304.514191,662.593018 
	C249.385345,617.085327 216.595551,558.459534 207.675522,487.252411 
	C202.560410,446.419373 205.825729,406.159363 219.526566,366.650574 
M617.058411,663.535156 
	C637.196594,649.912109 655.098755,633.853516 670.507874,614.996033 
	C719.180481,555.431152 736.882996,487.350159 725.333923,411.756042 
	C718.983398,370.188629 702.934753,332.188446 676.426758,299.363861 
	C616.275513,224.879074 538.213440,191.984222 442.971405,202.703156 
	C391.241882,208.524994 345.724365,229.950867 307.068481,264.944366 
	C251.260834,315.464630 223.770767,379.022583 222.575684,453.931793 
	C222.203201,477.280212 225.770340,500.394958 232.274094,522.909546 
	C247.555954,575.812134 276.890839,619.402039 320.310303,653.172668 
	C375.349731,695.981018 437.945465,712.383667 506.990112,704.562012 
	C546.776855,700.054810 583.208801,686.208130 617.058411,663.535156 
z"/>
<path fill="#000000" opacity="1.000000" stroke="none" 
	d="
M352.643707,487.999939 
	C352.639526,465.340759 352.760254,443.180298 352.528931,421.023499 
	C352.482452,416.573395 354.041351,414.626709 358.120178,413.152496 
	C395.702301,399.569153 433.223145,385.815491 470.722168,372.003693 
	C474.213806,370.717621 477.190735,371.478363 480.340546,372.777344 
	C507.432831,383.949890 534.534180,395.100494 561.643005,406.233002 
	C570.115356,409.712311 578.576599,413.226227 587.129822,416.497253 
	C590.248474,417.689880 591.397827,419.434814 591.388123,422.802765 
	C591.280701,459.956573 591.278931,497.110931 591.371155,534.264832 
	C591.379578,537.651062 590.174133,539.266724 587.003723,540.417664 
	C550.698120,553.598022 514.429199,566.880066 478.186401,580.232361 
	C473.896423,581.812805 470.039062,581.828186 465.681793,580.123230 
	C430.017487,566.168396 394.298035,552.353210 358.520416,538.691650 
	C354.133850,537.016663 352.388489,534.853271 352.515106,529.982605 
	C352.874298,516.163269 352.643280,502.328583 352.643707,487.999939 
M523.414917,396.632599 
	C508.243256,390.344574 493.069214,384.062256 477.903229,377.760620 
	C476.180603,377.044861 474.530029,376.577515 472.628723,377.265503 
	C455.009430,383.640747 437.293640,389.756866 419.237305,397.115051 
	C400.476379,402.976776 382.413239,410.793976 363.755554,416.921722 
	C359.321960,418.377808 357.872864,420.511261 357.891724,425.126556 
	C358.033417,459.778381 357.964600,494.431519 357.785065,529.083374 
	C357.767944,532.388428 359.418854,533.358521 361.912476,534.314453 
	C397.355682,547.900879 432.791260,561.507385 468.200073,575.183167 
	C470.671753,576.137817 472.826202,576.307129 475.378082,575.370056 
	C510.701477,562.398682 546.044556,549.480103 581.434021,536.690430 
	C584.849182,535.456177 586.014954,533.617920 585.980652,530.095032 
	C585.840942,515.768372 585.938354,501.439362 585.935730,487.111206 
	C585.932007,466.951843 585.909790,446.792511 585.916321,426.633148 
	C585.917175,424.075745 585.978210,421.719421 582.896790,420.537476 
	C563.156860,412.965546 543.920532,404.130981 523.414917,396.632599 
z"/>
<path fill="#000000" opacity="1.000000" stroke="none" 
	d="
M347.417419,323.933990 
	C352.333832,323.177490 355.466003,325.739044 358.307190,328.600067 
	C367.427155,337.783661 374.193573,348.680542 380.535126,359.846161 
	C381.934540,362.310150 383.298492,365.440430 379.837585,367.258362 
	C376.589539,368.964478 375.146484,365.984924 373.684814,363.787964 
	C369.719696,357.828217 369.429047,357.913666 363.854706,361.752319 
	C360.941956,363.758087 361.894196,365.864410 362.584991,368.269043 
	C363.516510,371.511719 364.789612,376.317322 361.011017,376.973633 
	C355.516174,377.928070 352.922546,382.224792 348.719788,384.464966 
	C342.358032,387.856049 338.526611,387.410980 333.700317,381.962646 
	C325.232208,372.403076 319.140594,361.313019 313.570160,349.919952 
	C312.167755,347.051666 311.337250,343.903534 315.048737,342.217407 
	C318.497406,340.650757 321.309814,342.253662 322.937164,345.450562 
	C327.405334,354.228180 332.593109,362.560852 338.171387,370.657990 
	C343.227661,377.997467 344.224121,378.190094 352.708710,373.583466 
	C350.591797,366.221924 348.356293,358.772614 346.320435,351.269104 
	C344.581085,344.858429 342.777313,338.445984 342.669769,331.714264 
	C342.614532,328.259216 343.587891,325.477081 347.417419,323.933990 
M355.659912,344.014496 
	C356.910919,347.686920 357.194519,351.704559 359.362244,355.124512 
	C361.849945,354.434937 363.858002,353.485504 365.321075,351.170532 
	C362.323456,346.195587 359.171753,341.353577 354.892914,336.791565 
	C353.883209,339.571350 355.358002,341.326691 355.659912,344.014496 
z"/>
<path fill="#000000" opacity="1.000000" stroke="none" 
	d="
M453.658386,330.002991 
	C454.076538,321.025452 452.824371,312.559296 453.558777,304.064911 
	C453.868103,300.487549 454.767883,297.619232 458.914429,297.782562 
	C462.887451,297.939148 464.160065,300.856537 464.254456,304.347504 
	C464.362457,308.340118 464.359253,312.338867 464.278290,316.332397 
	C464.217773,319.317993 465.902710,319.962189 468.429871,319.906067 
	C470.900848,319.851196 472.795563,319.218781 472.619232,316.271667 
	C472.381256,312.294281 471.912079,308.327423 471.779297,304.348114 
	C471.677216,301.288269 471.874207,297.912079 475.927429,297.606903 
	C479.838715,297.312408 480.280334,300.549408 480.579010,303.417999 
	C480.922913,306.720764 481.308990,310.056244 481.200592,313.361908 
	C480.888947,322.864929 482.068146,332.297394 482.260315,341.770844 
	C482.296936,343.576324 482.190063,345.462250 481.696381,347.180908 
	C481.104645,349.240662 479.606964,350.538696 477.223480,350.381866 
	C474.997742,350.235413 474.171295,348.784607 473.615723,346.866577 
	C472.286469,342.277588 472.982025,337.602844 472.863434,332.961731 
	C472.793854,330.238373 473.683899,327.063965 468.999298,327.122131 
	C464.850159,327.173645 464.203064,329.270844 464.161530,332.848114 
	C464.111450,337.161011 465.406830,341.386230 464.538269,345.760468 
	C463.872986,349.110962 462.118805,350.916443 458.838440,350.779816 
	C455.683899,350.648438 454.031982,348.397614 453.875580,345.476685 
	C453.608887,340.495392 453.712128,335.494263 453.658386,330.002991 
z"/>
<path fill="#000000" opacity="1.000000" stroke="none" 
	d="
M545.127686,323.189026 
	C547.461304,319.909363 549.547729,316.897125 551.730591,313.956360 
	C553.658447,311.359070 556.184631,309.898926 559.518555,310.676331 
	C563.172363,311.528290 564.525696,314.532715 565.044373,317.697388 
	C565.909241,322.974609 565.808350,328.383179 565.105103,333.644165 
	C564.025635,341.719299 562.391724,349.722473 560.895935,357.738068 
	C560.594421,359.353668 560.014526,360.964966 559.284729,362.440674 
	C558.421021,364.187134 556.911926,365.432220 554.849548,364.886444 
	C552.563049,364.281342 551.857117,362.427368 552.113831,360.196991 
	C552.208618,359.373016 552.449158,358.566742 552.600708,357.748230 
	C553.827271,351.123047 553.705200,351.097565 547.072571,349.722687 
	C544.679993,349.226776 543.242798,349.754730 542.245544,351.932129 
	C541.553528,353.443085 540.804871,354.949493 539.893372,356.334076 
	C538.108582,359.045197 535.563477,360.078796 532.559570,358.650208 
	C529.331543,357.115051 529.167419,354.392609 530.492981,351.443512 
	C534.798218,341.865479 539.556885,332.519348 545.127686,323.189026 
M556.064636,326.165344 
	C553.158508,331.297455 549.933899,336.273285 547.430664,342.457947 
	C550.713257,342.129395 554.029846,345.876770 555.352783,341.596588 
	C556.901978,336.584656 557.717102,331.223083 557.687256,325.869843 
	C557.677185,324.066254 556.910950,325.007294 556.064636,326.165344 
z"/>
<path fill="#000000" opacity="1.000000" stroke="none" 
	d="
M397.567505,344.516113 
	C396.044342,334.136810 394.668365,324.086884 392.078094,314.257019 
	C391.867859,313.459198 391.784119,312.612457 391.757965,311.784760 
	C391.688354,309.580078 391.566223,307.125793 394.417114,306.634674 
	C397.210205,306.153534 398.195526,308.305389 398.668549,310.533905 
	C400.874908,320.929230 403.282928,331.291595 404.300812,341.900146 
	C404.633728,345.369995 405.282562,348.864288 405.109314,352.313354 
	C404.915497,356.171936 404.000977,360.112061 399.451843,361.345398 
	C395.155029,362.510315 392.621399,359.829773 390.330200,356.763367 
	C381.984711,345.594116 376.614441,332.828888 370.751556,320.328461 
	C369.472961,317.602325 369.516327,315.094849 372.484955,313.466461 
	C375.246826,311.951447 377.649872,312.803314 379.658936,314.969299 
	C381.622284,317.086121 382.563049,319.804169 383.738434,322.368958 
	C387.670197,330.948456 391.803192,339.415070 397.595734,348.407013 
	C397.595734,346.394470 397.595734,345.630585 397.567505,344.516113 
z"/>
<path fill="#000000" opacity="1.000000" stroke="none" 
	d="
M528.637451,302.082886 
	C529.983215,302.490967 530.991089,302.683838 531.872192,303.128235 
	C533.698425,304.049255 535.639526,305.188171 534.845520,307.635712 
	C534.131958,309.835571 532.079346,310.294647 529.942566,310.260834 
	C527.619690,310.224060 524.688904,307.930267 523.148254,311.004272 
	C521.141541,315.008148 520.263794,319.504333 519.903503,323.970337 
	C519.778259,325.523895 521.738708,325.475586 523.047058,325.728180 
	C525.808044,326.261322 529.231506,326.520447 528.561646,330.561951 
	C527.929871,334.373566 524.687561,333.336639 522.094727,333.236359 
	C520.794800,333.186096 519.493591,332.467468 517.989319,333.330627 
	C516.717163,335.911377 516.468750,338.849182 516.273193,341.843506 
	C516.005859,345.936829 517.859497,348.101593 521.828369,348.674377 
	C522.809448,348.815979 523.812195,348.988800 524.730896,349.340698 
	C526.441528,349.995850 527.501831,351.267517 527.328796,353.170929 
	C527.146912,355.170685 525.649902,355.865570 523.896484,356.209900 
	C513.259033,358.298920 504.852356,351.775330 505.848541,341.181122 
	C507.014984,328.776428 510.119385,316.645874 513.461792,304.630981 
	C514.414673,301.205719 516.847839,299.869232 520.375732,300.553833 
	C522.991699,301.061493 525.619629,301.507904 528.637451,302.082886 
z"/>
<path fill="#000000" opacity="1.000000" stroke="none" 
	d="
M436.184143,307.225342 
	C432.161804,310.590271 434.342743,313.888611 436.307434,316.589417 
	C439.332062,320.747223 442.985046,324.445435 446.333740,328.370758 
	C449.105743,331.620117 451.063080,335.290375 451.086426,339.651306 
	C451.136566,349.037842 440.568268,355.838318 431.800781,352.054962 
	C429.097046,350.888245 426.461273,349.107727 427.784668,345.638733 
	C429.230438,341.848877 431.969330,343.419861 434.356384,344.790955 
	C436.037994,345.756836 437.526184,345.729858 438.819946,344.215057 
	C440.443695,342.313782 441.219513,340.213776 440.045898,337.774261 
	C438.501129,334.563202 435.915161,332.146881 433.629974,329.512512 
	C430.126251,325.473389 426.658722,321.403564 424.613007,316.393463 
	C421.436188,308.613220 424.555450,301.023712 431.768158,298.829865 
	C436.147797,297.497711 440.012695,298.639130 443.337555,301.626709 
	C444.849945,302.985687 446.321777,304.692535 445.212891,306.852081 
	C444.022919,309.169556 441.927460,308.492432 439.944153,307.844696 
	C438.854248,307.488739 437.688110,307.366241 436.184143,307.225342 
z"/>
<path fill="#000000" opacity="1.000000" stroke="none" 
	d="
M601.573730,370.517151 
	C600.881409,363.148041 600.278687,356.189117 601.723083,349.236359 
	C602.913391,343.506653 605.443054,338.847351 611.593201,337.280945 
	C618.770874,335.452881 626.376709,341.234894 626.301331,348.337189 
	C626.280457,350.301361 625.876465,352.139801 623.767395,352.709778 
	C621.805420,353.240021 620.759033,351.751984 619.885132,350.268036 
	C618.820740,348.460449 618.223083,345.844086 615.355408,346.541351 
	C612.667419,347.194946 612.075867,349.862976 611.692200,352.053436 
	C610.798523,357.156128 610.950256,362.359619 611.700012,367.467377 
	C612.151550,370.543152 611.904358,373.505829 611.072266,376.351929 
	C609.437439,381.943604 605.554871,385.348907 599.812439,386.436432 
	C595.328003,387.285706 588.574585,384.048950 586.012085,380.027069 
	C584.885681,378.259277 584.402405,376.376617 584.836792,374.315460 
	C585.180542,372.684662 586.218933,371.672424 587.864746,371.408875 
	C589.374695,371.167084 590.424805,371.920502 591.109497,373.210876 
	C592.242554,375.346039 592.766907,378.284851 596.238403,377.505829 
	C599.682007,376.733063 600.828674,373.970612 601.573730,370.517151 
z"/>
<path fill="#000000" opacity="1.000000" stroke="none" 
	d="
M581.081909,337.218506 
	C581.911926,335.544800 582.549377,334.188141 583.239197,332.858673 
	C584.375610,330.668488 584.553589,328.884613 581.874817,327.542389 
	C579.799927,326.502747 579.158813,324.614594 580.378174,322.491241 
	C581.482239,320.568573 583.246338,319.581940 585.437988,320.287048 
	C590.845093,322.026733 595.916077,324.559357 600.709351,327.568512 
	C602.418823,328.641632 603.590332,330.446960 602.517944,332.725342 
	C601.632324,334.606964 599.930298,335.745026 598.062378,335.095367 
	C594.367798,333.810364 593.419495,336.175568 592.242004,338.690399 
	C588.006897,347.735809 583.710571,356.752594 579.438721,365.780792 
	C578.869507,366.983704 578.430908,368.269348 577.717651,369.379028 
	C575.979431,372.083435 574.110901,375.133209 570.231812,373.172272 
	C566.529541,371.300690 566.429565,368.005005 567.997986,364.588043 
	C570.011658,360.200867 572.145081,355.868652 574.228516,351.513489 
	C576.455627,346.857788 578.684692,342.202972 581.081909,337.218506 
z"/>
<path fill="#000000" opacity="1.000000" stroke="none" 
	d="
M406.169739,310.755676 
	C405.653503,306.755249 406.752106,303.731384 410.548187,303.205231 
	C414.562714,302.648773 415.936951,305.946594 416.658813,309.135681 
	C419.552063,321.917938 422.413818,334.709351 425.060089,347.544189 
	C425.791931,351.093658 425.573181,355.101685 420.903046,355.736694 
	C416.079956,356.392487 414.836365,352.301147 414.055450,348.728485 
	C411.324646,336.235077 408.832245,323.689575 406.169739,310.755676 
z"/>
<path fill="#000000" opacity="1.000000" stroke="none" 
	d="
M510.522339,618.188965 
	C508.441772,622.032532 505.615448,624.263367 501.535919,623.857361 
	C497.130554,623.418884 494.869202,620.131958 493.878052,616.290833 
	C491.866882,608.496582 491.193176,600.613159 494.299774,592.870117 
	C495.922211,588.826294 498.510681,586.218506 503.328766,586.643433 
	C507.889740,587.045654 510.093628,589.986511 511.131927,593.885925 
	C513.259460,601.876038 513.594421,609.906799 510.522339,618.188965 
M503.658295,592.708496 
	C499.013733,597.369141 498.851471,611.548218 503.410736,617.003845 
	C503.554626,617.176025 504.030151,617.071106 504.351776,617.086426 
	C507.934601,612.080200 507.928284,597.864075 503.658295,592.708496 
z"/>
<path fill="#000000" opacity="1.000000" stroke="none" 
	d="
M561.068604,618.136597 
	C560.725159,620.896484 560.344238,623.586548 557.455933,623.787476 
	C554.366211,624.002380 553.182373,621.426208 552.910278,618.822510 
	C552.623840,616.080444 551.160950,615.811890 548.851501,615.778870 
	C541.019958,615.667053 540.378174,614.527222 543.630737,607.272888 
	C546.148499,601.657349 548.674133,596.045288 551.181335,590.424927 
	C552.304321,587.907532 553.987122,586.177063 556.962891,586.849182 
	C559.872131,587.506287 560.844116,589.848022 560.949829,592.493896 
	C561.096008,596.149170 560.984497,599.814148 561.018066,603.474609 
	C561.043640,606.262085 560.650818,609.072266 563.791077,610.892029 
	C565.577271,611.927124 565.378845,613.754761 563.583862,614.929871 
	C562.457764,615.667114 561.192078,616.155334 561.068604,618.136597 
M550.058105,610.128296 
	C555.085449,608.476440 551.751465,604.827393 552.331055,602.102417 
	C551.575684,604.825317 548.200134,606.687683 550.058105,610.128296 
z"/>
<path fill="#000000" opacity="1.000000" stroke="none" 
	d="
M476.081848,592.542908 
	C473.816620,593.329956 472.171570,595.371887 469.792206,594.067078 
	C468.799316,593.522522 468.646942,592.422363 468.934174,591.425293 
	C469.679321,588.838379 471.891754,588.017883 474.159302,587.330383 
	C477.880890,586.201843 481.541290,586.329712 484.478302,589.049622 
	C487.477509,591.827209 487.525116,595.422424 486.486725,599.216980 
	C485.288849,603.594360 483.475616,607.636169 480.993317,611.430237 
	C479.948090,613.027771 478.379730,614.491882 478.675171,616.712708 
	C480.174866,618.298279 482.231812,617.363037 483.885284,618.022888 
	C485.162628,618.532654 486.412506,619.124268 486.227661,620.799194 
	C486.080597,622.131531 485.045868,622.994263 483.887970,623.044434 
	C479.914917,623.216492 475.917633,623.377441 471.958649,623.110840 
	C469.737152,622.961243 469.299561,620.898499 469.373718,618.930176 
	C469.503418,615.486938 470.968292,612.554016 472.803955,609.718384 
	C475.327606,605.819763 477.995758,601.969543 478.932495,597.282837 
	C479.385712,595.015442 479.623993,592.837463 476.081848,592.542908 
z"/>
<path fill="#000000" opacity="1.000000" stroke="none" 
	d="
M535.958496,593.513062 
	C536.345276,600.015076 533.663269,605.143433 530.738098,610.200500 
	C529.527588,612.293213 527.585449,614.067322 527.663879,616.725342 
	C529.046204,618.309265 530.892029,617.447144 532.419495,617.912476 
	C533.915161,618.368042 535.376282,618.916443 535.247498,620.809814 
	C535.140442,622.383240 533.915955,623.147705 532.507812,623.192200 
	C528.862366,623.307373 525.204773,623.390137 521.565063,623.214966 
	C519.041016,623.093445 518.365723,621.170227 518.448059,618.954041 
	C518.562500,615.872192 519.798950,613.196960 521.432373,610.628418 
	C524.103577,606.427917 526.714050,602.187073 528.031738,597.302673 
	C528.436951,595.800537 528.785950,594.354431 527.414490,593.174683 
	C526.011047,591.967407 524.672363,592.581543 523.298401,593.348938 
	C521.541931,594.329773 519.396179,595.612122 518.204285,593.025635 
	C517.032043,590.482117 519.195251,589.061340 521.140686,588.056885 
	C527.229065,584.913391 533.244080,587.023682 535.958496,593.513062 
z"/>
<path fill="#000000" opacity="1.000000" stroke="none" 
	d="
M394.882324,614.128296 
	C395.357758,617.275330 397.291779,617.803406 399.660217,617.921204 
	C401.411194,618.008301 403.160858,618.593689 403.002747,620.763306 
	C402.848358,622.881470 401.015656,623.097656 399.299500,623.299316 
	C390.989624,624.276062 387.936493,621.883545 387.627838,613.386292 
	C387.368805,606.253967 387.648468,599.102234 387.679413,591.959106 
	C387.689636,589.598083 388.358124,587.336243 390.897034,587.019653 
	C394.443481,586.577332 398.308655,585.580139 401.455566,588.110596 
	C402.969177,589.327698 401.966492,590.812317 400.489410,591.708191 
	C394.430359,595.383362 394.428558,595.380371 395.397064,602.296082 
	C396.411011,602.496582 397.532074,602.667664 398.625427,602.947205 
	C400.009918,603.301086 401.148224,604.045959 401.063599,605.645569 
	C400.980377,607.218872 399.816193,608.122986 398.399780,608.102539 
	C394.011658,608.039246 394.033234,610.614319 394.882324,614.128296 
z"/>
<path fill="#000000" opacity="1.000000" stroke="none" 
	d="
M410.706604,617.405396 
	C415.086853,616.646362 415.866974,614.873596 413.625366,610.976929 
	C411.147552,606.669678 407.949646,602.753174 406.616241,597.840820 
	C405.313751,593.042358 406.966309,589.384827 411.068756,587.513184 
	C413.775696,586.278198 416.295807,586.686340 418.658295,588.158203 
	C420.401703,589.244324 421.993042,590.851440 421.135376,593.070740 
	C420.240295,595.386902 418.424225,593.951233 416.895081,593.567505 
	C413.902344,592.816406 413.324677,594.409119 413.910126,596.888733 
	C414.572388,599.693787 416.210632,602.012939 417.739319,604.393494 
	C419.170868,606.622742 420.826508,608.798279 421.760468,611.236145 
	C423.276886,615.194214 422.181030,618.979797 418.953278,621.588745 
	C415.695801,624.221680 411.815704,623.995728 408.167725,622.124207 
	C406.648010,621.344543 405.360413,619.965698 406.177063,618.069641 
	C407.067413,616.002502 408.753448,616.402283 410.706604,617.405396 
z"/>
<path fill="#000000" opacity="1.000000" stroke="none" 
	d="
M428.604828,594.807495 
	C427.635315,593.662842 426.682007,593.007019 425.912201,592.180298 
	C423.696442,589.800781 424.391693,587.508362 427.238342,587.009216 
	C430.778778,586.388428 434.506073,586.772034 438.150482,586.840088 
	C439.378052,586.862915 440.353149,587.621582 440.767181,588.829346 
	C441.290833,590.356873 440.523926,591.601624 439.261566,592.121094 
	C436.296600,593.341187 436.305267,595.715210 436.328613,598.296570 
	C436.387115,604.772217 436.381744,611.249146 436.320129,617.724792 
	C436.295685,620.291382 436.046661,623.158020 432.620361,623.083740 
	C429.343628,623.012695 428.891571,620.217468 428.854218,617.631287 
	C428.746277,610.161133 428.746857,602.689453 428.604828,594.807495 
z"/>
<path fill="#000000" opacity="1.000000" stroke="none" 
	d="
M634.741455,279.275940 
	C633.517700,284.272156 631.227661,285.956024 628.159424,284.449310 
	C626.055603,283.416168 624.832458,281.687164 625.134888,279.279602 
	C625.375488,277.363586 626.377563,275.834473 628.417358,275.385193 
	C631.511780,274.703613 633.441040,276.205048 634.741455,279.275940 
z"/>
<path fill="#000000" opacity="1.000000" stroke="none" 
	d="
M296.830078,598.942688 
	C300.847656,597.839050 302.921082,599.709351 303.600525,603.011597 
	C304.149353,605.679138 302.374725,607.386719 299.938354,608.043274 
	C296.990417,608.837585 295.270355,607.114075 294.297058,604.569275 
	C293.366974,602.137390 294.730988,600.511475 296.830078,598.942688 
z"/>
<path fill="#000000" opacity="1.000000" stroke="none" 
	d="
M312.368774,623.845703 
	C309.657440,622.338074 308.130157,620.528687 309.077881,617.633728 
	C309.680145,615.794189 310.974304,614.503479 312.959808,614.234375 
	C315.207031,613.929810 316.790497,615.147949 317.822205,616.964355 
	C319.784271,620.418823 317.721832,623.211243 312.368774,623.845703 
z"/>
<path fill="#000000" opacity="1.000000" stroke="none" 
	d="
M315.361633,291.863098 
	C311.877533,292.773560 309.713776,291.555023 308.985321,288.523468 
	C308.362732,285.932373 309.842957,284.030304 312.151062,283.015228 
	C314.364624,282.041809 316.412994,282.559357 317.758270,284.677094 
	C319.695038,287.725983 318.478516,289.959717 315.361633,291.863098 
z"/>
<path fill="#000000" opacity="1.000000" stroke="none" 
	d="
M709.990723,449.123474 
	C712.623779,451.931244 713.187256,454.633606 710.378662,457.154877 
	C708.713623,458.649536 706.680481,458.520599 704.878784,457.201996 
	C702.671082,455.586395 702.317505,453.372131 703.462891,451.032928 
	C704.771729,448.360077 706.946289,447.679321 709.990723,449.123474 
z"/>
<path fill="#000000" opacity="1.000000" stroke="none" 
	d="
M531.456848,681.296387 
	C529.118713,678.475281 529.484253,676.080811 531.950806,674.114746 
	C534.079773,672.417603 536.283936,672.730957 538.223450,674.600586 
	C539.847961,676.166626 540.375366,678.044617 539.008301,679.961182 
	C537.125732,682.600403 534.708435,683.522034 531.456848,681.296387 
z"/>
<path fill="#000000" opacity="1.000000" stroke="none" 
	d="
M251.694000,529.457275 
	C251.059830,525.891235 252.500732,523.775574 255.565292,523.278198 
	C258.256927,522.841370 259.862823,524.659851 260.655334,527.117065 
	C261.459595,529.610535 260.345154,531.438843 258.234283,532.499695 
	C255.202316,534.023376 253.171936,532.551636 251.694000,529.457275 
z"/>
<path fill="#000000" opacity="1.000000" stroke="none" 
	d="
M538.907410,226.939682 
	C540.511230,230.330841 539.259460,232.363205 536.427063,233.528671 
	C534.230469,234.432495 532.203857,233.909958 530.766357,231.922440 
	C529.298401,229.892715 529.484558,227.864685 531.305298,226.184402 
	C533.852112,223.834000 536.350037,224.388535 538.907410,226.939682 
z"/>
<path fill="#000000" opacity="1.000000" stroke="none" 
	d="
M570.834534,243.209641 
	C571.846375,239.848618 574.087952,239.167816 576.826233,239.637039 
	C578.886658,239.990128 579.976685,241.471527 580.225708,243.452545 
	C580.504456,245.669464 579.513062,247.352707 577.532959,248.356506 
	C574.445740,249.921555 571.968323,248.156097 570.834534,243.209641 
z"/>
<path fill="#000000" opacity="1.000000" stroke="none" 
	d="
M550.828857,235.083313 
	C551.801575,231.722000 553.721069,230.166626 556.849731,231.055634 
	C559.064331,231.684891 560.661865,233.295746 560.619141,235.731186 
	C560.576294,238.171707 558.997131,239.814835 556.648865,240.120346 
	C553.310425,240.554657 551.369263,238.780701 550.828857,235.083313 
z"/>
<path fill="#000000" opacity="1.000000" stroke="none" 
	d="
M327.702515,277.471375 
	C325.156647,275.565155 323.966583,273.492523 325.766052,270.892151 
	C327.198517,268.822113 329.298401,267.736511 331.804565,268.819092 
	C333.992401,269.764130 335.290894,271.646210 334.492737,274.028107 
	C333.503815,276.979156 331.526978,278.818329 327.702515,277.471375 
z"/>
<path fill="#000000" opacity="1.000000" stroke="none" 
	d="
M643.511108,607.243164 
	C646.992188,606.288818 649.113953,607.565369 649.888367,610.536987 
	C650.557007,613.103027 649.120850,615.018738 646.874695,616.121094 
	C644.860107,617.109924 642.935120,616.610229 641.667969,614.738098 
	C639.732971,611.879272 640.707397,609.475464 643.511108,607.243164 
z"/>
<path fill="#000000" opacity="1.000000" stroke="none" 
	d="
M401.397583,233.461975 
	C400.731903,229.473297 402.886169,227.917648 405.994904,227.520004 
	C408.437439,227.207596 410.114746,228.691162 410.802002,230.961105 
	C411.556915,233.454391 410.131775,235.122269 408.067657,236.147491 
	C405.182831,237.580353 402.970093,236.667572 401.397583,233.461975 
z"/>
<path fill="#000000" opacity="1.000000" stroke="none" 
	d="
M703.187073,388.964844 
	C702.688416,392.528931 700.756714,394.088715 697.679932,393.499878 
	C695.123718,393.010712 693.890442,390.918945 693.877930,388.392639 
	C693.866943,386.177338 695.271729,384.458435 697.307556,384.108215 
	C700.559998,383.548615 702.581055,385.284027 703.187073,388.964844 
z"/>
<path fill="#000000" opacity="1.000000" stroke="none" 
	d="
M301.809875,307.142273 
	C298.770691,308.989380 296.399719,308.623718 294.684998,305.905975 
	C293.163879,303.495117 294.178955,301.403900 296.084534,299.785919 
	C298.003571,298.156494 300.181915,298.454285 301.970306,299.996918 
	C304.451569,302.137177 304.227783,304.551453 301.809875,307.142273 
z"/>
<path fill="#000000" opacity="1.000000" stroke="none" 
	d="
M633.993408,629.070740 
	C632.254639,631.362915 630.376587,632.541199 627.823669,631.413269 
	C625.999878,630.607361 625.095459,628.993042 625.012451,627.076843 
	C624.925110,625.059143 626.169800,623.727539 627.831421,622.757996 
	C629.449707,621.813599 631.074463,622.019714 632.477356,623.073669 
	C634.373291,624.498047 635.095337,626.412720 633.993408,629.070740 
z"/>
<path fill="#000000" opacity="1.000000" stroke="none" 
	d="
M269.364258,566.378174 
	C270.937439,563.384338 273.022888,561.948181 275.939056,563.447998 
	C278.172302,564.596558 279.182648,566.726074 278.487030,569.272400 
	C277.852417,571.595459 276.203674,573.020142 273.759430,572.686035 
	C270.439392,572.232178 269.110016,569.960571 269.364258,566.378174 
z"/>
<path fill="#000000" opacity="1.000000" stroke="none" 
	d="
M468.549042,217.283005 
	C472.663940,216.456207 474.735321,218.404312 474.859680,221.828354 
	C474.962585,224.662399 472.859131,226.213409 469.980591,226.226990 
	C467.787628,226.237350 466.190857,225.133163 465.544342,223.008560 
	C464.755585,220.416504 465.692047,218.527557 468.549042,217.283005 
z"/>
<path fill="#000000" opacity="1.000000" stroke="none" 
	d="
M276.155029,334.953613 
	C278.673004,336.746826 279.194305,338.869324 277.985901,341.268341 
	C276.999237,343.227081 275.244202,344.213928 273.043182,343.898224 
	C271.038574,343.610687 269.799500,342.221924 269.259827,340.333405 
	C268.281036,336.908173 270.914215,334.719849 276.155029,334.953613 
z"/>
<path fill="#000000" opacity="1.000000" stroke="none" 
	d="
M428.559509,230.974945 
	C425.061646,231.631805 422.884613,230.466827 422.395294,227.289642 
	C421.984131,224.620056 423.541046,222.881973 426.076660,222.228592 
	C428.473541,221.610962 430.320221,222.638779 431.365601,224.798920 
	C432.724030,227.605804 431.474091,229.519897 428.559509,230.974945 
z"/>
<path fill="#000000" opacity="1.000000" stroke="none" 
	d="
M448.863129,227.993195 
	C445.754120,227.500305 443.993530,226.009979 443.804108,223.125656 
	C443.666504,221.030899 444.872925,219.653549 446.732941,219.046188 
	C449.311798,218.204086 451.893341,218.466583 452.982452,221.278473 
	C454.314087,224.716675 452.684204,226.960266 448.863129,227.993195 
z"/>
<path fill="#000000" opacity="1.000000" stroke="none" 
	d="
M486.855103,221.979553 
	C487.645477,218.029388 490.112518,217.190384 493.229126,217.867111 
	C495.664612,218.395950 496.721954,220.209106 496.515839,222.668716 
	C496.300873,225.233673 494.513000,226.556763 492.277374,226.803925 
	C489.220276,227.141891 487.295288,225.534195 486.855103,221.979553 
z"/>
<path fill="#000000" opacity="1.000000" stroke="none" 
	d="
M384.215088,244.191116 
	C381.128021,242.569458 379.888702,240.398468 381.528320,237.508896 
	C382.780090,235.302887 384.851654,234.200211 387.443512,235.121674 
	C389.502411,235.853668 390.893860,237.427277 390.587006,239.668274 
	C390.132477,242.988022 387.953461,244.482376 384.215088,244.191116 
z"/>
<path fill="#000000" opacity="1.000000" stroke="none" 
	d="
M362.797760,245.926422 
	C366.479156,243.646561 369.271881,244.214569 370.562500,248.073578 
	C371.550598,251.028061 369.493225,252.674225 366.942719,253.607056 
	C364.978027,254.325638 363.329468,253.617523 362.134827,252.017426 
	C360.633850,250.007080 360.855133,248.014313 362.797760,245.926422 
z"/>
<path fill="#000000" opacity="1.000000" stroke="none" 
	d="
M242.479767,482.882141 
	C244.755371,480.724060 246.898453,480.597076 248.947189,482.399689 
	C250.390106,483.669281 251.057007,485.378510 250.555786,487.328247 
	C250.055450,489.274536 248.746155,490.474854 246.760284,490.783142 
	C243.003326,491.366364 241.279236,488.455048 242.479767,482.882141 
z"/>
<path fill="#000000" opacity="1.000000" stroke="none" 
	d="
M429.371399,676.203369 
	C432.278351,678.341675 432.856659,680.735229 430.807007,683.266663 
	C429.311737,685.113464 427.246368,685.666077 425.016846,684.316406 
	C422.952148,683.066528 421.852020,681.239502 422.584717,678.868286 
	C423.591095,675.611450 426.119690,675.278687 429.371399,676.203369 
z"/>
<path fill="#000000" opacity="1.000000" stroke="none" 
	d="
M248.048813,425.226562 
	C244.705627,426.787598 242.837570,425.333496 241.972412,422.685730 
	C241.139481,420.136627 241.760559,417.759735 244.449203,416.430756 
	C246.596130,415.369568 248.387039,416.205200 249.680969,417.872284 
	C251.822281,420.631256 251.098694,423.066315 248.048813,425.226562 
z"/>
<path fill="#000000" opacity="1.000000" stroke="none" 
	d="
M246.089310,402.162781 
	C245.066895,399.193634 245.354706,396.862793 247.983658,395.401001 
	C249.706955,394.442719 251.493851,394.458832 253.062149,395.827423 
	C254.805939,397.349121 254.818222,399.350342 254.230179,401.320984 
	C253.213425,404.728363 250.311874,405.119476 246.089310,402.162781 
z"/>
<path fill="#000000" opacity="1.000000" stroke="none" 
	d="
M698.929016,513.232178 
	C702.242859,514.251648 703.826233,516.184204 702.912109,519.308777 
	C702.260071,521.537170 700.508728,522.985901 698.109375,522.942749 
	C695.812195,522.901489 694.418457,521.200623 694.059448,519.168945 
	C693.462769,515.792236 695.376770,513.923340 698.929016,513.232178 
z"/>
<path fill="#000000" opacity="1.000000" stroke="none" 
	d="
M641.360718,292.539062 
	C642.793030,290.714844 644.440247,290.505341 646.122681,290.808228 
	C648.539246,291.243256 649.962952,292.855133 650.096802,295.257721 
	C650.233582,297.711761 648.847900,299.414215 646.501343,299.987579 
	C644.068481,300.582123 642.326355,299.314728 641.211731,297.225800 
	C640.470459,295.836670 640.551392,294.345825 641.360718,292.539062 
z"/>
<path fill="#000000" opacity="1.000000" stroke="none" 
	d="
M326.935577,629.849304 
	C330.426239,628.281372 332.856659,629.196167 334.062714,632.331421 
	C334.904175,634.519043 334.277374,636.705322 331.996277,637.796509 
	C329.635864,638.925598 327.417786,638.307556 325.834778,636.233948 
	C324.141510,634.015930 324.716553,631.920654 326.935577,629.849304 
z"/>
<path fill="#000000" opacity="1.000000" stroke="none" 
	d="
M403.821106,678.587097 
	C400.953186,676.394714 400.422028,673.988770 402.547180,671.523987 
	C404.097473,669.726013 406.255249,669.296387 408.382080,670.706055 
	C410.298004,671.975830 411.747620,673.716431 410.714325,676.128174 
	C409.479095,679.011169 407.138275,679.867859 403.821106,678.587097 
z"/>
<path fill="#000000" opacity="1.000000" stroke="none" 
	d="
M573.544373,667.268250 
	C570.397888,664.857727 569.814392,662.242065 572.461853,659.590210 
	C574.511658,657.537109 576.900269,657.745483 579.057373,659.646667 
	C580.414124,660.842468 580.955933,662.445801 580.204529,664.094116 
	C578.995850,666.745544 576.943115,668.126160 573.544373,667.268250 
z"/>
<path fill="#000000" opacity="1.000000" stroke="none" 
	d="
M281.861694,583.075500 
	C283.238556,581.652222 284.676270,581.276489 286.172302,581.532104 
	C288.580933,581.943542 289.846680,583.676636 290.186737,585.928528 
	C290.552399,588.349670 289.306366,590.103088 287.054321,590.882690 
	C284.649048,591.715332 282.937836,590.432739 281.689575,588.499451 
	C280.621033,586.844543 280.626617,585.101440 281.861694,583.075500 
z"/>
<path fill="#000000" opacity="1.000000" stroke="none" 
	d="
M496.686584,685.063171 
	C495.801239,688.871826 493.469208,689.905090 490.300018,688.972351 
	C488.010773,688.298462 486.679291,686.541016 487.162933,684.079590 
	C487.677399,681.461060 489.644867,680.187012 492.199585,680.263611 
	C494.899139,680.344482 496.247192,682.143982 496.686584,685.063171 
z"/>
<path fill="#000000" opacity="1.000000" stroke="none" 
	d="
M510.849976,686.176147 
	C508.255707,683.746826 507.821960,681.339111 510.211639,679.061890 
	C511.922028,677.431946 514.089966,677.184753 516.140320,678.568420 
	C518.184387,679.947876 518.898193,682.006775 517.825195,684.205200 
	C516.448486,687.026001 514.106750,687.793396 510.849976,686.176147 
z"/>
<path fill="#000000" opacity="1.000000" stroke="none" 
	d="
M612.866821,645.221985 
	C609.418579,644.690369 607.634399,642.960327 608.240845,639.782898 
	C608.666382,637.553040 610.202942,635.924561 612.687317,635.848328 
	C615.159973,635.772583 616.797791,637.181946 617.284424,639.501831 
	C617.951111,642.679504 616.172852,644.410767 612.866821,645.221985 
z"/>
<path fill="#000000" opacity="1.000000" stroke="none" 
	d="
M471.521729,681.242920 
	C474.464111,682.693604 475.778931,684.626953 474.327087,687.440979 
	C473.218872,689.588867 471.204773,690.475952 468.848358,689.854919 
	C466.509766,689.238525 464.989410,687.581726 465.368134,685.092712 
	C465.850067,681.925232 468.009735,680.671509 471.521729,681.242920 
z"/>
<path fill="#000000" opacity="1.000000" stroke="none" 
	d="
M342.647522,260.073914 
	C343.358521,256.562775 345.397003,255.288742 348.461548,255.804047 
	C350.881989,256.211060 352.215637,257.837616 352.174469,260.299286 
	C352.133179,262.765686 350.591003,264.371399 348.341095,264.839630 
	C344.945099,265.546387 343.053833,263.823792 342.647522,260.073914 
z"/>
<path fill="#000000" opacity="1.000000" stroke="none" 
	d="
M661.825684,308.104767 
	C664.177734,310.281219 664.987366,312.408722 662.960754,314.845856 
	C661.691223,316.372559 660.052124,317.066620 658.105103,316.376617 
	C655.820496,315.566986 654.696533,313.834381 654.753296,311.429199 
	C654.834717,307.983368 657.210815,306.757202 661.825684,308.104767 
z"/>
<path fill="#000000" opacity="1.000000" stroke="none" 
	d="
M707.155273,499.937988 
	C704.771667,502.190491 702.556519,502.543488 700.441223,500.282257 
	C698.628418,498.344391 698.490295,496.101501 700.054932,493.989685 
	C701.321106,492.280609 703.125732,491.315002 705.208984,492.522186 
	C708.038208,494.161652 708.905273,496.569946 707.155273,499.937988 
z"/>
<path fill="#000000" opacity="1.000000" stroke="none" 
	d="
M676.267334,330.008118 
	C675.767090,333.486115 673.763489,334.640686 670.966492,334.128632 
	C668.351746,333.649963 667.149902,331.598969 667.212097,329.074036 
	C667.272217,326.634033 668.794922,325.057465 671.211792,324.869171 
	C674.444214,324.617310 675.960449,326.537079 676.267334,330.008118 
z"/>
<path fill="#000000" opacity="1.000000" stroke="none" 
	d="
M243.813110,437.813904 
	C244.688263,437.948975 245.202911,438.002441 245.621216,438.231689 
	C248.099335,439.589935 249.129242,441.663116 248.240158,444.392853 
	C247.557587,446.488525 245.964737,447.604736 243.720795,447.413605 
	C241.489456,447.223511 240.090576,445.893250 239.777145,443.695740 
	C239.364105,440.799927 240.030807,438.434540 243.813110,437.813904 
z"/>
<path fill="#000000" opacity="1.000000" stroke="none" 
	d="
M263.347900,353.749084 
	C267.603180,353.917114 269.632355,355.801636 268.497223,359.810486 
	C267.852417,362.087738 265.953156,363.256287 263.545380,363.196167 
	C261.704010,363.150208 260.322571,362.106171 259.907623,360.348816 
	C259.225311,357.459015 260.070160,355.109711 263.347900,353.749084 
z"/>
<path fill="#000000" opacity="1.000000" stroke="none" 
	d="
M690.990967,363.729553 
	C694.466187,364.147736 696.248413,365.939972 696.044922,368.990753 
	C695.893494,371.260132 694.496033,372.994110 691.944824,373.128754 
	C689.477234,373.259003 687.801575,371.870758 687.160828,369.659363 
	C686.301392,366.693115 687.366333,364.519623 690.990967,363.729553 
z"/>
<path fill="#000000" opacity="1.000000" stroke="none" 
	d="
M668.365662,580.747986 
	C666.300232,577.727966 666.890930,575.350464 669.449036,573.579468 
	C671.470154,572.180176 673.624695,572.415283 675.262390,574.323059 
	C676.722778,576.024414 676.726746,578.085327 675.479736,579.860596 
	C673.677612,582.425781 671.332153,583.039185 668.365662,580.747986 
z"/>
<path fill="#000000" opacity="1.000000" stroke="none" 
	d="
M257.640625,383.150452 
	C254.185165,383.641479 251.887756,382.698700 251.519821,379.365082 
	C251.233994,376.775604 252.542114,374.833160 255.103729,374.138062 
	C257.547668,373.474884 259.329926,374.749786 260.343842,376.849426 
	C261.667694,379.590881 260.422485,381.583832 257.640625,383.150452 
z"/>
<path fill="#000000" opacity="1.000000" stroke="none" 
	d="
M516.818848,221.208939 
	C518.717163,223.651306 518.724670,225.762436 516.875488,227.768997 
	C515.635681,229.114288 514.037720,229.537506 512.347473,228.956726 
	C509.669403,228.036575 507.972290,226.079391 508.991241,223.268295 
	C510.338806,219.550629 513.116272,218.837769 516.818848,221.208939 
z"/>
<path fill="#000000" opacity="1.000000" stroke="none" 
	d="
M445.479553,687.267944 
	C443.137207,684.597351 443.147644,682.150391 445.665283,680.194763 
	C447.517975,678.755615 449.758850,678.912292 451.594971,680.406555 
	C453.484009,681.943970 453.923981,684.008545 452.534485,686.096619 
	C450.804352,688.696594 448.505798,689.294495 445.479553,687.267944 
z"/>
<path fill="#000000" opacity="1.000000" stroke="none" 
	d="
M287.506165,324.869019 
	C284.821228,325.682037 282.864990,325.196838 281.531952,323.106659 
	C280.559326,321.581635 280.610016,319.960724 281.538269,318.429596 
	C282.545349,316.768372 284.018036,315.736603 286.022430,315.920013 
	C287.776215,316.080505 289.148499,317.037811 289.842712,318.674530 
	C290.911621,321.194763 289.956970,323.142365 287.506165,324.869019 
z"/>
<path fill="#000000" opacity="1.000000" stroke="none" 
	d="
M389.818787,669.397461 
	C387.666107,672.197998 385.341217,672.838257 382.794403,670.794250 
	C380.983978,669.341492 380.178619,667.341736 381.263031,665.080933 
	C382.370728,662.771545 384.474640,662.256348 386.705200,662.922058 
	C389.696014,663.814636 390.879211,665.931885 389.818787,669.397461 
z"/>
<path fill="#000000" opacity="1.000000" stroke="none" 
	d="
M368.033813,653.817932 
	C370.236511,655.390015 371.256409,657.116394 370.402100,659.517944 
	C369.788300,661.243347 368.565552,662.175293 366.725555,662.304077 
	C364.772552,662.440796 363.152130,661.823486 362.033203,660.179016 
	C360.905243,658.521240 360.782654,656.765869 362.003479,655.125916 
	C363.471252,653.154175 365.436584,652.748474 368.033813,653.817932 
z"/>
<path fill="#000000" opacity="1.000000" stroke="none" 
	d="
M599.099731,653.729736 
	C597.687805,656.709473 595.624756,657.803833 592.828979,656.890137 
	C590.912415,656.263733 589.885376,654.727173 589.852783,652.695312 
	C589.819946,650.643372 590.947266,649.224915 592.735718,648.394592 
	C595.940308,646.906555 598.406128,648.818542 599.099731,653.729736 
z"/>
<path fill="#000000" opacity="1.000000" stroke="none" 
	d="
M705.277222,414.243286 
	C701.636353,415.313843 699.774475,413.694580 699.141479,410.702759 
	C698.652222,408.389832 699.620789,406.453064 701.979553,405.549866 
	C704.118530,404.730774 705.914429,405.340759 707.142761,407.245697 
	C708.912109,409.989746 708.164307,412.255524 705.277222,414.243286 
z"/>
<path fill="#000000" opacity="1.000000" stroke="none" 
	d="
M684.440186,562.708618 
	C680.863098,563.809875 678.805176,562.426331 678.022949,559.407166 
	C677.389099,556.960571 678.854736,555.194275 680.950745,554.189209 
	C682.987854,553.212341 684.956360,553.697144 686.222900,555.624756 
	C687.986023,558.308350 687.426697,560.664001 684.440186,562.708618 
z"/>
<path fill="#000000" opacity="1.000000" stroke="none" 
	d="
M263.194061,553.137695 
	C259.924744,551.629028 259.068878,549.282166 260.124573,546.402527 
	C260.816711,544.514465 262.500793,543.621277 264.531738,543.817566 
	C266.808441,544.037659 268.243896,545.531067 268.618988,547.631287 
	C269.300415,551.446899 267.356018,553.222595 263.194061,553.137695 
z"/>
<path fill="#000000" opacity="1.000000" stroke="none" 
	d="
M687.684937,541.234253 
	C686.099976,537.618469 687.253479,535.307800 690.392273,534.108826 
	C692.874329,533.160767 694.588196,534.662415 695.674744,536.699585 
	C696.884399,538.967529 696.039307,540.996765 694.114380,542.391235 
	C691.914185,543.984985 689.742249,543.636475 687.684937,541.234253 
z"/>
<path fill="#000000" opacity="1.000000" stroke="none" 
	d="
M245.585388,506.329834 
	C246.574280,503.105438 248.602203,501.896667 251.427017,502.787689 
	C254.077927,503.623840 254.771973,505.877136 254.307312,508.437225 
	C253.897812,510.693481 252.294922,512.088379 250.135635,512.048584 
	C246.863617,511.988312 245.562073,509.776184 245.585388,506.329834 
z"/>
<path fill="#000000" opacity="1.000000" stroke="none" 
	d="
M711.111328,475.918976 
	C710.378357,478.830383 708.911987,480.447388 706.125305,480.182220 
	C704.112854,479.990723 702.869812,478.687988 702.237427,476.821259 
	C701.572449,474.858490 702.251953,473.212036 703.690125,471.898712 
	C706.474060,469.356476 709.332214,470.762939 711.111328,475.918976 
z"/>
<path fill="#000000" opacity="1.000000" stroke="none" 
	d="
M710.296021,428.839905 
	C711.889648,432.086670 711.221313,434.419006 708.325317,435.804535 
	C706.042114,436.896820 704.078918,436.089203 702.795288,433.969757 
	C701.522461,431.868134 701.766724,429.756805 703.548401,428.082092 
	C705.779785,425.984680 708.024353,426.353394 710.296021,428.839905 
z"/>
<path fill="#000000" opacity="1.000000" stroke="none" 
	d="
M244.810211,459.780457 
	C248.540100,460.926270 249.710785,463.190308 248.254456,466.362701 
	C247.156372,468.754639 244.994247,469.742218 242.464432,468.733551 
	C239.877777,467.702240 239.334244,465.399536 239.929413,462.936096 
	C240.463959,460.723541 242.190140,459.798279 244.810211,459.780457 
z"/>
<path fill="#000000" opacity="1.000000" stroke="none" 
	d="
M658.195190,599.862671 
	C654.789429,598.505066 654.052979,596.208496 655.202271,593.351624 
	C656.128845,591.048523 658.102478,590.291748 660.464355,590.809204 
	C662.610657,591.279419 664.122314,592.679810 664.033325,594.906494 
	C663.901306,598.207336 661.926697,599.917236 658.195190,599.862671 
z"/>
<path fill="#000000" opacity="1.000000" stroke="none" 
	d="
M347.082336,641.878235 
	C350.158295,642.488403 352.027924,643.958008 352.116852,646.875977 
	C352.171387,648.666260 351.135773,650.029114 349.518738,650.793945 
	C347.695007,651.656433 345.936707,651.288635 344.392273,650.088745 
	C341.248718,647.646545 342.247925,644.129150 347.082336,641.878235 
z"/>
<path fill="#000000" opacity="1.000000" stroke="none" 
	d="
M684.453552,344.251404 
	C686.938293,345.996246 687.843933,347.994629 686.695007,350.493713 
	C685.871582,352.284882 684.372559,353.304413 682.313843,353.162231 
	C679.991638,353.001862 678.766663,351.431915 678.146423,349.435486 
	C677.111206,346.103394 679.535095,343.961456 684.453552,344.251404 
z"/>
<path fill="#000000" opacity="1.000000" stroke="none" 
	d="
M608.125732,266.724304 
	C608.527161,262.571106 610.718994,261.030975 614.292603,262.057953 
	C616.896606,262.806305 617.844543,264.939209 617.268860,267.575470 
	C616.880249,269.354919 615.598145,270.585449 613.882568,270.851898 
	C611.004517,271.298859 609.204651,269.711334 608.125732,266.724304 
z"/>
<path fill="#000000" opacity="1.000000" stroke="none" 
	d="
M590.524475,256.269562 
	C589.249939,252.808365 590.420227,250.669983 593.439758,249.760513 
	C595.810730,249.046402 597.697815,250.206528 598.812988,252.324768 
	C599.962036,254.507263 599.574463,256.578430 597.561768,258.067902 
	C594.811462,260.103302 592.603821,258.990417 590.524475,256.269562 
z"/>
<path fill="#000000" opacity="1.000000" stroke="none" 
	d="
M553.512634,667.204224 
	C556.462280,666.299805 558.489441,667.103210 559.797058,669.389771 
	C560.718872,671.001526 560.340088,672.647461 559.159485,673.993469 
	C557.249207,676.171387 554.799438,676.763611 552.594910,674.821472 
	C549.785461,672.346558 550.047607,669.653809 553.512634,667.204224 
z"/>
<path fill="#000000" opacity="1.000000" stroke="none" 
	d="
M363.174347,607.826294 
	C365.998535,608.197693 369.971985,606.971313 369.730591,610.715088 
	C369.503906,614.230347 365.583771,612.947449 363.124664,613.119324 
	C361.118561,613.259521 358.576721,613.106689 358.384918,610.657776 
	C358.176361,607.995117 360.801605,608.070312 363.174347,607.826294 
z"/>
<path fill="#000000" opacity="1.000000" stroke="none" 
	d="
M587.905884,613.170532 
	C586.474182,613.152466 585.470093,613.192017 584.480469,613.090698 
	C582.875610,612.926392 581.344543,612.255066 581.300598,610.511108 
	C581.255005,608.701843 582.854980,608.103821 584.423584,607.921936 
	C585.574951,607.788452 586.754456,607.766479 587.911621,607.842712 
	C590.000061,607.980408 592.877563,607.551331 592.925903,610.534912 
	C592.968323,613.152771 590.343018,613.058350 587.905884,613.170532 
z"/>
<path fill="#000000" opacity="1.000000" stroke="none" 
	d="
M445.372620,622.698975 
	C443.269073,619.649719 442.192993,616.748535 446.607910,615.623230 
	C448.889374,615.041626 451.084381,616.356323 451.107513,618.996704 
	C451.137604,622.428345 448.882996,623.473022 445.372620,622.698975 
z"/>
<path fill="#000000" opacity="1.000000" stroke="none" 
	d="
M419.803040,397.259338 
	C422.230164,397.634521 423.458496,399.526550 424.830658,401.140808 
	C436.350922,414.693909 447.642242,428.446533 459.387726,441.800201 
	C462.956635,445.857819 463.539398,449.706177 462.036621,454.495331 
	C461.366119,456.632050 459.807007,459.148834 461.435547,461.124207 
	C464.379761,464.695557 467.827301,467.854736 471.118561,471.131866 
	C471.367065,471.379303 472.074921,471.312958 472.516968,471.195618 
	C476.596252,470.112671 482.986542,459.487091 481.699890,455.335938 
	C479.900024,449.528961 481.075226,444.953430 485.165924,440.318787 
	C497.044647,426.860596 508.527222,413.052856 520.181030,399.395782 
	C521.037048,398.392578 521.908569,397.345001 523.675293,397.024902 
	C525.254089,399.436157 523.568481,401.056061 522.308228,402.780823 
	C514.445740,413.541321 506.561462,424.285950 498.716278,435.059082 
	C497.597168,436.595795 496.090302,438.000580 496.039093,440.357117 
	C499.178314,441.078735 499.970123,438.531311 501.120361,437.060486 
	C509.227509,426.693573 517.197327,416.219269 525.214783,405.782166 
	C525.823608,404.989624 526.434692,404.195953 527.092102,403.444244 
	C527.986694,402.421265 528.955261,401.274200 530.398376,402.556183 
	C531.557861,403.586243 530.859253,404.701050 530.185059,405.670929 
	C527.808105,409.090118 525.439270,412.516357 522.989197,415.883057 
	C516.813538,424.369171 510.582153,432.814697 504.410065,441.303406 
	C503.590912,442.430023 502.131134,443.417542 503.047272,445.285797 
	C505.730133,446.117218 506.430328,443.718567 507.546722,442.329346 
	C515.478149,432.460144 523.318115,422.517456 531.197021,412.606049 
	C532.025940,411.563263 532.860779,410.513641 533.797424,409.571075 
	C534.895386,408.466125 535.963196,406.419220 537.811157,408.204437 
	C539.312683,409.654907 537.723877,410.962311 536.863342,412.083710 
	C529.054810,422.258942 521.181213,432.384338 513.393982,442.575775 
	C511.647003,444.862152 509.471252,446.978180 508.865326,450.172394 
	C511.839752,451.323395 512.793091,449.237152 513.948486,447.791077 
	C522.474915,437.119629 530.956360,426.412292 539.467407,415.728516 
	C540.532471,414.391571 541.239868,412.451263 543.533264,412.797363 
	C544.935120,415.067474 543.233459,416.453033 542.297729,417.827179 
	C531.608154,433.524933 520.778748,449.127838 510.145081,464.863220 
	C507.410461,468.909882 503.288422,468.852936 499.454376,468.824158 
	C494.983582,468.790680 492.587433,470.683929 490.435913,474.372803 
	C483.839935,485.681885 483.762817,485.552063 492.738403,495.226990 
	C501.688293,504.874207 510.965942,514.230896 519.223999,524.501404 
	C523.122375,529.349731 526.172241,534.700745 527.717224,540.772217 
	C528.944641,545.595703 528.263794,550.251099 524.509827,553.680176 
	C520.509888,557.333984 515.717712,556.988281 510.905457,555.099976 
	C504.543640,552.603638 500.417267,547.548096 496.444794,542.402161 
	C489.406830,533.285034 483.610931,523.338928 477.597046,513.541931 
	C475.959351,510.874023 474.197296,508.282440 472.552094,505.747955 
	C469.910980,506.250946 469.582031,508.327209 468.620117,509.757294 
	C460.171906,522.316833 453.337341,535.969727 443.030029,547.271912 
	C439.834839,550.775513 436.277374,553.664856 431.819885,555.396912 
	C422.267883,559.108582 414.396210,553.219604 415.527435,542.993164 
	C416.387024,535.222229 420.733917,529.015076 425.463318,523.159973 
	C435.209900,511.093658 446.378784,500.305786 456.819397,488.861694 
	C459.350677,486.087097 459.760895,483.978912 457.429901,481.185822 
	C456.794922,480.424957 456.212158,479.564911 455.832184,478.655640 
	C452.733643,471.241089 447.239288,467.730743 439.184875,468.204895 
	C436.418060,468.367798 434.460175,466.945435 432.957489,464.723785 
	C422.036407,448.577667 411.098572,432.442841 400.181427,416.294067 
	C399.537506,415.341614 398.894409,414.317413 399.808228,412.869843 
	C402.509705,412.355927 403.380127,414.746033 404.598633,416.258667 
	C412.960114,426.638611 421.210938,437.107666 429.557190,447.500031 
	C430.687164,448.907104 431.468689,451.239990 434.323822,450.171265 
	C434.742340,447.656921 432.853668,446.198212 431.640900,444.595642 
	C423.698425,434.100647 415.617889,423.710083 407.676727,413.214111 
	C406.518555,411.683289 403.620178,409.749725 406.275116,407.870819 
	C408.764191,406.109283 409.859100,409.390686 411.070374,410.904175 
	C419.501038,421.437958 427.803375,432.074371 436.196411,442.638519 
	C437.258179,443.974976 438.000702,446.011047 440.465149,445.453766 
	C441.977448,443.282135 439.995789,442.091675 439.033325,440.771027 
	C430.888824,429.595734 422.650360,418.488892 414.519897,407.303528 
	C413.490753,405.887726 410.893219,404.208099 413.509766,402.365570 
	C415.731964,400.800751 416.612732,403.441162 417.617767,404.760437 
	C425.592773,415.228882 433.458832,425.780579 441.472321,436.219208 
	C442.866028,438.034698 444.026001,440.529572 447.070801,440.468140 
	C448.034088,437.859100 446.091827,436.552521 445.020203,435.069824 
	C437.212738,424.267792 429.288025,413.550629 421.462097,402.761841 
	C420.367615,401.252930 418.358154,399.935089 419.803040,397.259338 
z"/>
<path fill="#000000" opacity="1.000000" stroke="none" 
	d="
M569.990601,472.643188 
	C573.649841,472.659821 576.812866,472.743225 579.972778,472.676208 
	C582.397034,472.624786 583.769409,473.535919 583.796692,476.098022 
	C583.822998,478.568695 583.155334,480.302551 580.197510,480.298523 
	C561.393250,480.273102 542.588928,480.281616 523.784668,480.313507 
	C521.248352,480.317810 520.191223,479.115448 520.177490,476.660034 
	C520.160645,473.643951 521.699463,472.650970 524.561951,472.661591 
	C538.706665,472.714081 552.851807,472.661133 566.996765,472.645569 
	C567.828857,472.644653 568.660889,472.645294 569.990601,472.643188 
z"/>
<path fill="#000000" opacity="1.000000" stroke="none" 
	d="
M412.967224,472.626343 
	C415.459473,472.646698 417.459900,472.736481 419.455750,472.675751 
	C422.176514,472.592987 423.340088,473.759094 423.321716,476.545807 
	C423.303070,479.379395 421.996521,480.337952 419.341766,480.331970 
	C400.854919,480.290283 382.367920,480.278412 363.881134,480.323364 
	C360.916260,480.330597 359.697845,479.108582 359.717957,476.133423 
	C359.739014,473.016144 361.628601,472.695679 364.007446,472.694061 
	C380.162750,472.683075 396.318024,472.652771 412.967224,472.626343 
z"/>
<path fill="#000000" opacity="1.000000" stroke="none" 
	d="
M409.857117,490.298279 
	C396.900360,490.297882 384.424347,490.263641 371.948639,490.317017 
	C368.973969,490.329742 366.728271,490.023743 366.771973,486.128296 
	C366.815979,482.204346 369.259186,481.976776 372.107025,481.977417 
	C384.915588,481.980255 397.724182,481.982025 410.532745,481.986145 
	C413.535706,481.987122 416.220886,482.151703 416.218292,486.354218 
	C416.215515,490.883606 413.108215,490.206177 409.857117,490.298279 
z"/>
<path fill="#000000" opacity="1.000000" stroke="none" 
	d="
M576.358337,483.661224 
	C577.845520,488.656677 576.008972,490.367554 571.316467,490.311554 
	C558.537598,490.159119 545.755432,490.265869 532.974609,490.289001 
	C530.198120,490.294006 527.684143,490.406555 527.613770,486.343567 
	C527.539429,482.055298 530.184448,481.980011 533.171753,481.980774 
	C545.786621,481.984070 558.401489,481.974548 571.016357,481.998688 
	C572.817505,482.002136 574.712769,481.794098 576.358337,483.661224 
z"/>
<path fill="#000000" opacity="1.000000" stroke="none" 
	d="
M376.065186,462.879028 
	C387.885712,462.870880 399.215302,462.846649 410.544769,462.870453 
	C413.152039,462.875946 416.110352,462.310028 416.272156,466.481384 
	C416.433014,470.627350 413.808624,470.988525 410.722687,470.990295 
	C398.060303,470.997589 385.397919,471.030548 372.735535,471.031036 
	C369.838165,471.031158 366.903534,471.172729 366.773621,466.916473 
	C366.635773,462.400391 369.763123,462.947723 372.575317,462.885010 
	C373.574493,462.862732 374.574554,462.880737 376.065186,462.879028 
z"/>
<path fill="#000000" opacity="1.000000" stroke="none" 
	d="
M532.269714,471.015991 
	C528.498474,471.147614 527.516968,469.390778 527.627319,466.321930 
	C527.752502,462.843414 530.082397,462.882721 532.486084,462.881012 
	C545.628784,462.871552 558.771423,462.886169 571.914124,462.868408 
	C574.645325,462.864716 576.937683,463.237762 577.000793,466.769440 
	C577.069275,470.603668 574.547852,470.988281 571.665649,470.990814 
	C558.689331,471.002136 545.713013,471.009796 532.269714,471.015991 
z"/>
</svg>